<svg width="14" height="16" viewBox="0 0 14 16" fill="none" xmlns="http://www.w3.org/2000/svg">
<rect width="14" height="16" fill="#D4CDCD"/>
<rect width="375" height="3254" transform="translate(-18 -3104)" fill="#282939"/>
<path d="M7 9.125C6.44374 9.125 5.89997 8.96005 5.43746 8.65101C4.97495 8.34197 4.61446 7.90272 4.40159 7.3888C4.18872 6.87488 4.13302 6.30938 4.24154 5.76381C4.35006 5.21824 4.61793 4.7171 5.01126 4.32376C5.4046 3.93043 5.90574 3.66256 6.45131 3.55404C6.99688 3.44552 7.56238 3.50122 8.0763 3.71409C8.59022 3.92696 9.02947 4.28745 9.33851 4.74996C9.64755 5.21247 9.8125 5.75624 9.8125 6.3125C9.81161 7.05815 9.51501 7.773 8.98775 8.30025C8.4605 8.82751 7.74565 9.12411 7 9.125ZM7 4.625C6.66625 4.625 6.33998 4.72397 6.06248 4.9094C5.78497 5.09482 5.56868 5.35837 5.44095 5.66672C5.31323 5.97507 5.27981 6.31437 5.34493 6.64172C5.41004 6.96906 5.57076 7.26974 5.80676 7.50574C6.04276 7.74175 6.34344 7.90246 6.67079 7.96758C6.99813 8.03269 7.33743 7.99927 7.64578 7.87155C7.95413 7.74383 8.21768 7.52753 8.40311 7.25003C8.58853 6.97252 8.6875 6.64626 8.6875 6.3125C8.68705 5.86509 8.50912 5.43612 8.19275 5.11975C7.87638 4.80338 7.44742 4.62545 7 4.625Z" fill="white"/>
<path d="M7 15.875L2.25475 10.2787C2.18882 10.1947 2.12356 10.1101 2.059 10.025C1.24884 8.95704 0.810996 7.65299 0.812504 6.3125C0.812504 4.67147 1.4644 3.09766 2.62478 1.93728C3.78516 0.776896 5.35898 0.125 7 0.125C8.64103 0.125 10.2148 0.776896 11.3752 1.93728C12.5356 3.09766 13.1875 4.67147 13.1875 6.3125C13.1888 7.65235 12.7512 8.95574 11.9416 10.0233L11.941 10.025C11.941 10.025 11.7723 10.2466 11.7469 10.2764L7 15.875ZM2.95732 9.34719C2.95732 9.34719 3.08838 9.52044 3.11819 9.55756L7 14.1358L10.8869 9.55137C10.9116 9.52044 11.0433 9.34606 11.0438 9.3455C11.706 8.47315 12.0638 7.40771 12.0625 6.3125C12.0625 4.96984 11.5291 3.68217 10.5797 2.73277C9.63033 1.78337 8.34266 1.25 7 1.25C5.65735 1.25 4.36968 1.78337 3.42028 2.73277C2.47087 3.68217 1.9375 4.96984 1.9375 6.3125C1.93612 7.40842 2.29438 8.47452 2.95732 9.34719Z" fill="white"/>
</svg>
