<svg width="25" height="25" viewBox="0 0 25 25" fill="none" xmlns="http://www.w3.org/2000/svg">
<path d="M12.5484 0.416569C5.95086 0.416569 0.573779 5.79365 0.573779 12.3912C0.573779 14.5057 1.12961 16.5599 2.16878 18.3724L0.477112 24.5832L6.82086 22.9157C8.57295 23.8703 10.5425 24.3778 12.5484 24.3778C19.1459 24.3778 24.5229 19.0007 24.5229 12.4032C24.5229 9.20115 23.2784 6.1924 21.0188 3.93282C19.9108 2.81403 18.5913 1.92694 17.137 1.32326C15.6828 0.719569 14.1229 0.411353 12.5484 0.416569ZM12.5604 2.43449C15.2188 2.43449 17.7079 3.47365 19.5929 5.35865C20.5178 6.28365 21.2511 7.38202 21.7508 8.59085C22.2505 9.79967 22.5068 11.0952 22.505 12.4032C22.505 17.8891 18.0342 22.3478 12.5484 22.3478C10.76 22.3478 9.00795 21.8766 7.48545 20.9582L7.12295 20.7528L3.35295 21.7437L4.35586 18.0703L4.1142 17.6837C3.11677 16.0988 2.58888 14.2637 2.5917 12.3912C2.60378 6.90532 7.06253 2.43449 12.5604 2.43449ZM8.30711 6.85699C8.11378 6.85699 7.78753 6.92949 7.50961 7.23157C7.24378 7.53365 6.45836 8.27074 6.45836 9.73282C6.45836 11.207 7.53378 12.6207 7.6667 12.8262C7.83586 13.0316 9.79336 16.0524 12.8021 17.3332C13.515 17.6595 14.0709 17.8407 14.5059 17.9737C15.2188 18.2032 15.8713 18.167 16.3909 18.0945C16.9709 18.0099 18.155 17.3695 18.4088 16.6687C18.6625 15.9678 18.6625 15.3757 18.59 15.2428C18.5054 15.122 18.3121 15.0495 18.01 14.9166C17.7079 14.7474 16.2338 14.0224 15.9679 13.9257C15.69 13.8291 15.5209 13.7807 15.2913 14.0707C15.0979 14.3728 14.5179 15.0495 14.3488 15.2428C14.1675 15.4482 13.9984 15.4724 13.7084 15.3274C13.3942 15.1703 12.4275 14.8562 11.2917 13.8412C10.3975 13.0437 9.80544 12.0649 9.6242 11.7628C9.47919 11.4728 9.61211 11.2916 9.75711 11.1587C9.89003 11.0257 10.0834 10.8082 10.2042 10.627C10.3613 10.4578 10.4096 10.3249 10.5063 10.1316C10.6029 9.92615 10.5546 9.75699 10.4821 9.61199C10.4096 9.47907 9.80545 7.98074 9.5517 7.38865C9.31003 6.80865 9.06836 6.88115 8.87503 6.86907C8.70586 6.86907 8.51253 6.85699 8.30711 6.85699Z" fill="white"/>
</svg>
