<svg width="67" height="58" viewBox="0 0 67 58" fill="none" xmlns="http://www.w3.org/2000/svg">
<path d="M31 29.375C31 30.0049 30.7498 30.609 30.3044 31.0544C29.859 31.4998 29.2549 31.75 28.625 31.75H14.375C13.7451 31.75 13.141 31.4998 12.6956 31.0544C12.2502 30.609 12 30.0049 12 29.375C12 28.7451 12.2502 28.141 12.6956 27.6956C13.141 27.2502 13.7451 27 14.375 27H28.625C29.2549 27 29.859 27.2502 30.3044 27.6956C30.7498 28.141 31 28.7451 31 29.375ZM28.625 17.5H14.375C13.7451 17.5 13.141 17.7502 12.6956 18.1956C12.2502 18.641 12 19.2451 12 19.875C12 20.5049 12.2502 21.109 12.6956 21.5544C13.141 21.9998 13.7451 22.25 14.375 22.25H28.625C29.2549 22.25 29.859 21.9998 30.3044 21.5544C30.7498 21.109 31 20.5049 31 19.875C31 19.2451 30.7498 18.641 30.3044 18.1956C29.859 17.7502 29.2549 17.5 28.625 17.5ZM61.875 36.9364V55.5C61.8788 55.9187 61.7718 56.331 61.5649 56.695C61.3579 57.059 61.0585 57.3619 60.6968 57.5728C60.3351 57.7838 59.9241 57.8954 59.5054 57.8964C59.0866 57.8973 58.6751 57.7875 58.3125 57.5781L51.1875 53.4991L44.0625 57.5781C43.6999 57.7875 43.2884 57.8973 42.8696 57.8964C42.4509 57.8954 42.0399 57.7838 41.6782 57.5728C41.3165 57.3619 41.0171 57.059 40.8101 56.695C40.6032 56.331 40.4962 55.9187 40.5 55.5V48.375H4.875C3.61522 48.375 2.40704 47.8746 1.51624 46.9838C0.625445 46.093 0.125 44.8848 0.125 43.625V5.625C0.125 4.36522 0.625445 3.15704 1.51624 2.26624C2.40704 1.37544 3.61522 0.875 4.875 0.875H57.125C58.3848 0.875 59.593 1.37544 60.4838 2.26624C61.3746 3.15704 61.875 4.36522 61.875 5.625V14.6886C63.3763 16.1263 64.5711 17.8531 65.3873 19.7648C66.2036 21.6766 66.6243 23.7338 66.6243 25.8125C66.6243 27.8912 66.2036 29.9484 65.3873 31.8602C64.5711 33.7719 63.3763 35.4987 61.875 36.9364ZM40.5 43.625V36.9364C37.9119 34.4404 36.2762 31.1192 35.8753 27.546C35.4743 23.9728 36.3332 20.3717 38.3038 17.3641C40.2743 14.3566 43.2329 12.1312 46.669 11.072C50.1051 10.0128 53.8032 10.1863 57.125 11.5625V5.625H4.875V43.625H40.5ZM57.125 40.0625C55.2441 40.8483 53.2259 41.253 51.1875 41.253C49.1491 41.253 47.1309 40.8483 45.25 40.0625V51.4091L50 48.6897C50.3589 48.4845 50.7652 48.3766 51.1786 48.3766C51.592 48.3766 51.9983 48.4845 52.3572 48.6897L57.1072 51.4091L57.125 40.0625ZM61.875 25.8125C61.875 23.6987 61.2482 21.6324 60.0738 19.8748C58.8995 18.1173 57.2303 16.7474 55.2774 15.9385C53.3245 15.1296 51.1756 14.918 49.1025 15.3304C47.0293 15.7427 45.125 16.7606 43.6303 18.2553C42.1356 19.75 41.1177 21.6543 40.7054 23.7275C40.293 25.8006 40.5046 27.9495 41.3135 29.9024C42.1225 31.8553 43.4923 33.5245 45.2498 34.6988C47.0074 35.8732 49.0737 36.5 51.1875 36.5C52.591 36.5 53.9808 36.2236 55.2774 35.6865C56.5741 35.1494 57.7523 34.3621 58.7447 33.3697C59.7371 32.3773 60.5244 31.1991 61.0615 29.9024C61.5986 28.6058 61.875 27.216 61.875 25.8125Z" fill="#F8F8F8"/>
</svg>
