<svg width="82" height="50" viewBox="0 0 82 50" fill="none" xmlns="http://www.w3.org/2000/svg">
<path d="M55.6959 0.25H44.69C43.665 0.25 42.6784 0.636719 41.9225 1.33281L29.3278 12.9344C29.315 12.9473 29.3022 12.973 29.2894 12.9859C27.1625 14.9969 27.2009 18.2066 29.0203 20.2047C30.6475 21.9965 34.0684 22.4734 36.2081 20.5527C36.2209 20.5398 36.2466 20.5398 36.2594 20.527L46.4966 11.091C47.3294 10.3305 48.6362 10.382 49.3922 11.2199C50.1609 12.0578 50.0969 13.3598 49.2641 14.1332L45.92 17.2141L64.575 32.4508C64.9466 32.7602 65.2797 33.0953 65.5872 33.4434V8.5L58.5916 1.46172C57.8356 0.688281 56.785 0.25 55.6959 0.25ZM69.7 8.52578V37.3879C69.7 39.6695 71.5322 41.5129 73.8 41.5129H82V8.52578H69.7ZM75.85 37.3879C74.7225 37.3879 73.8 36.4598 73.8 35.3254C73.8 34.191 74.7225 33.2629 75.85 33.2629C76.9775 33.2629 77.9 34.191 77.9 35.3254C77.9 36.4598 76.9775 37.3879 75.85 37.3879ZM0 41.5H8.2C10.4678 41.5 12.3 39.6566 12.3 37.375V8.52578H0V41.5ZM6.15 33.2629C7.2775 33.2629 8.2 34.191 8.2 35.3254C8.2 36.4598 7.2775 37.3879 6.15 37.3879C5.0225 37.3879 4.1 36.4598 4.1 35.3254C4.1 34.1781 5.0225 33.2629 6.15 33.2629ZM61.9997 35.6605L42.8706 20.0371L39.0269 23.582C35.2216 27.0754 29.3919 26.7402 25.9966 23.0148C22.55 19.225 22.8191 13.3598 26.5603 9.90508L37.0409 0.25H26.3041C25.215 0.25 24.1772 0.688281 23.4084 1.46172L16.4 8.5V37.3621H18.7447L30.34 47.9195C33.8506 50.7941 39.0141 50.2527 41.8712 46.7207L41.8969 46.6949L44.1903 48.693C46.2275 50.3687 49.2384 50.0465 50.8913 47.9969L54.9144 43.0211L55.6062 43.5883C57.3616 45.0191 59.9497 44.7613 61.3719 42.9824L62.5891 41.4742C64.0241 39.6953 63.755 37.1043 61.9997 35.6605Z" fill="white"/>
</svg>
