<svg width="90" height="97" viewBox="0 0 90 97" fill="none" xmlns="http://www.w3.org/2000/svg">
<path d="M48.5334 5.18329L45.0001 0.470703L41.4667 5.18329L41.449 5.20537L41.3961 5.27604L41.1796 5.56312L40.3405 6.66287C36.162 12.1033 31.8199 17.416 27.3201 22.5938C23.4997 26.9575 19.5026 31.2151 15.9781 34.3421C14.2115 35.9145 12.6656 37.1114 11.4069 37.8887C10.3204 38.5556 9.77272 38.7058 9.65788 38.7411V38.7323L9.64022 34.3156L0.806885 34.351L0.824552 38.7676C0.828968 40.5564 1.29272 42.778 2.8518 44.6285C4.5213 46.616 6.95047 47.5877 9.66672 47.5877V87.3377H0.833385V96.171H89.1667V87.3377H80.3334V47.5877C83.0452 47.5877 85.4788 46.616 87.1483 44.6285C88.7074 42.7735 89.1667 40.5475 89.1667 38.7544V34.3333H80.3334V38.7323C79.7172 38.5308 79.1316 38.2454 78.5932 37.8843C76.9737 36.8307 75.4434 35.646 74.0175 34.3421C70.4975 31.2063 66.496 26.953 62.6756 22.5894C57.8637 17.0715 53.2412 11.3913 48.8161 5.5587L48.5996 5.27162L48.5466 5.20095L48.5334 5.18329ZM65.7761 38.75H24.2196C27.6132 35.4441 30.8653 31.996 33.9672 28.415C37.7606 24.0613 41.4394 19.6093 45.0001 15.0634L45.8127 16.0969C49.1183 20.2831 52.5246 24.3888 56.0285 28.4105C59.1302 31.9931 62.3824 35.4426 65.7761 38.75ZM18.5001 47.5833H71.5001V87.3333H58.2501V74.0833C58.2501 70.5692 56.8541 67.199 54.3692 64.7141C51.8844 62.2293 48.5142 60.8333 45.0001 60.8333C41.4859 60.8333 38.1157 62.2293 35.6309 64.7141C33.146 67.199 31.75 70.5692 31.75 74.0833V87.3333H18.5001V47.5833ZM49.4167 87.3333H40.5834V74.0833C40.5834 72.9119 41.0487 71.7885 41.877 70.9602C42.7053 70.132 43.8287 69.6666 45.0001 69.6666C46.1714 69.6666 47.2948 70.132 48.1231 70.9602C48.9514 71.7885 49.4167 72.9119 49.4167 74.0833V87.3333Z" fill="white"/>
</svg>
