<svg width="87" height="84" viewBox="0 0 87 84" fill="none" xmlns="http://www.w3.org/2000/svg">
<path d="M6.375 3.375C6.375 2.55449 6.70095 1.76758 7.28114 1.18739C7.86133 0.607198 8.64824 0.28125 9.46875 0.28125H77.5312C78.3518 0.28125 79.1387 0.607198 79.7189 1.18739C80.2991 1.76758 80.625 2.55449 80.625 3.375C80.625 4.19551 80.2991 4.98242 79.7189 5.56261C79.1387 6.1428 78.3518 6.46875 77.5312 6.46875H68.25C68.25 8.18888 67.0001 9.5625 65.4347 9.5625H63.6094V19.1222C66.2391 19.8337 68.1881 22.2778 68.1881 25.1241C68.1881 27.2773 67.0744 29.1831 65.3945 30.2906L68.2407 34.3125H82.1286C82.5439 34.3092 82.9437 34.4697 83.2414 34.7593C83.5391 35.0489 83.7106 35.4441 83.7188 35.8594C83.7188 36.0636 83.6783 36.2657 83.5998 36.4542C83.5213 36.6427 83.4063 36.8138 83.2613 36.9576C83.1164 37.1014 82.9444 37.2151 82.7553 37.2921C82.5662 37.3691 82.3637 37.4079 82.1595 37.4062H80.625V46.6875H82.1286C82.5439 46.6842 82.9437 46.8447 83.2414 47.1343C83.5391 47.4239 83.7106 47.8191 83.7188 48.2344C83.7106 48.6496 83.5391 49.0449 83.2414 49.3345C82.9437 49.6241 82.5439 49.7846 82.1286 49.7812H78.9791C79.022 50.0642 78.9844 50.3535 78.8706 50.6161C78.7568 50.8787 78.5714 51.104 78.3356 51.2662C78.0572 51.4519 77.7478 51.5447 77.4384 51.5447C76.9434 51.5447 76.4794 51.3281 76.17 50.895L75.3811 49.7812H48.6202L47.8312 50.895C47.5219 51.3281 47.0578 51.5447 46.5628 51.5447C46.2534 51.5447 45.9441 51.4519 45.6656 51.2662C45.4298 51.104 45.2445 50.8787 45.1307 50.6161C45.0169 50.3535 44.9793 50.0642 45.0221 49.7812H41.9964C41.5811 49.7846 41.1813 49.6241 40.8836 49.3345C40.5859 49.0449 40.4144 48.6496 40.4062 48.2344C40.4062 47.3867 41.124 46.6875 41.9964 46.6875H43.5V37.4062H41.9964C41.5811 37.4096 41.1813 37.2491 40.8836 36.9595C40.5859 36.6699 40.4144 36.2746 40.4062 35.8594C40.4062 35.0117 41.124 34.3125 41.9964 34.3125H55.7636L58.6099 30.2906C57.7525 29.7282 57.0481 28.9618 56.5599 28.06C56.0718 27.1583 55.8152 26.1495 55.8131 25.1241C55.8131 24.2578 56.5247 23.5772 57.36 23.5772C58.2262 23.5772 58.9069 24.2578 58.9069 25.1241C58.9069 26.2378 59.504 27.2216 60.395 27.7661L60.6579 27.3949C60.7255 27.2815 60.8077 27.1775 60.9023 27.0855C61.0455 26.9399 61.2166 26.8246 61.4053 26.7465C61.5939 26.6683 61.7964 26.629 62.0006 26.6307C62.4028 26.6276 62.805 26.7854 63.0989 27.0855C63.1946 27.1774 63.2778 27.2814 63.3464 27.3949L63.6063 27.7661C64.4973 27.2216 65.0944 26.2378 65.0944 25.1241C65.0944 23.4225 63.7641 22.0612 62.0625 22.0303C61.5366 22.0303 61.0416 21.7519 60.7631 21.3188C60.5801 21.079 60.4822 20.7851 60.4847 20.4834C60.4847 20.3597 60.4847 20.2669 60.5156 20.1431V9.5625H58.6903C57.1249 9.5625 55.875 8.18888 55.875 6.46875H37.3125V71.4375H39.6328C41.7675 71.4375 43.5 73.17 43.5 75.3047V77.625H80.6559C84.0591 77.625 86.8125 80.3939 86.8125 83.8125H0.1875C0.1875 80.3939 2.94094 77.625 6.34406 77.625H9.46875V75.3047C9.46875 73.17 11.2013 71.4375 13.3359 71.4375H15.6562V6.46875H9.46875C8.64824 6.46875 7.86133 6.1428 7.28114 5.56261C6.70095 4.98242 6.375 4.19551 6.375 3.375ZM18.75 12.6562V19.4347L32.3068 12.6562H18.75ZM20.6619 71.4375H34.2188V64.6591L20.6619 71.4375ZM32.3068 62.1562H18.75V68.9347L32.3068 62.1562ZM20.6619 21.9375H34.2188V15.1591L20.6619 21.9375ZM32.3068 25.0312H18.75V31.8097L32.3068 25.0312ZM20.6619 34.3125H34.2188V27.5341L20.6619 34.3125ZM32.3068 37.4062H18.75V44.1847L32.3068 37.4062ZM20.6619 46.6875H34.2188V39.9091L20.6619 46.6875ZM32.3068 49.7812H18.75V56.5597L32.3068 49.7812ZM20.6619 59.0625H34.2188V52.2841L20.6619 59.0625ZM61.6974 31.3054L59.5689 34.3125H64.4323L62.3038 31.3054C62.1018 31.3153 61.8994 31.3153 61.6974 31.3054ZM53.5732 37.4062H46.5938V46.6875H47.0021L53.5732 37.4062ZM50.8105 46.6875H73.1907L66.6227 37.4062H57.3786L50.8105 46.6875ZM70.4311 37.4062L76.9991 46.6875H77.5312V37.4062H70.4311Z" fill="white"/>
</svg>
