<svg width="60" height="60" viewBox="0 0 60 60" fill="none" xmlns="http://www.w3.org/2000/svg">
<path d="M6.66677 27.0833C7.41017 27.0841 8.1252 27.3688 8.66576 27.8791C9.20633 28.3894 9.53162 29.0869 9.57519 29.829C9.61876 30.5712 9.3773 31.3019 8.90017 31.872C8.42303 32.4421 7.74622 32.8084 7.00802 32.8962L6.66677 32.9166H3.75011C3.00671 32.9158 2.29168 32.6312 1.75111 32.1208C1.21055 31.6105 0.885253 30.913 0.841687 30.1709C0.79812 29.4288 1.03957 28.698 1.51671 28.128C1.99385 27.5579 2.67066 27.1915 3.40885 27.1037L3.75011 27.0833H6.66677ZM30.0001 0.833313C30.7145 0.833407 31.404 1.09569 31.9379 1.5704C32.4717 2.04511 32.8128 2.69925 32.8964 3.40873L32.9168 3.74998V6.66665C32.9159 7.41005 32.6313 8.12507 32.121 8.66564C31.6106 9.2062 30.9132 9.5315 30.171 9.57506C29.4289 9.61863 28.6982 9.37718 28.1281 8.90004C27.558 8.4229 27.1917 7.74609 27.1039 7.0079L27.0834 6.66665V3.74998C27.0834 2.97643 27.3907 2.23457 27.9377 1.68758C28.4847 1.1406 29.2266 0.833313 30.0001 0.833313ZM56.2501 27.0833C56.9935 27.0841 57.7085 27.3688 58.2491 27.8791C58.7897 28.3894 59.115 29.0869 59.1585 29.829C59.2021 30.5712 58.9606 31.3019 58.4835 31.872C58.0064 32.4421 57.3296 32.8084 56.5914 32.8962L56.2501 32.9166H53.3334C52.59 32.9158 51.875 32.6312 51.3344 32.1208C50.7939 31.6105 50.4686 30.913 50.425 30.1709C50.3815 29.4288 50.6229 28.698 51.1 28.128C51.5772 27.5579 52.254 27.1915 52.9922 27.1037L53.3334 27.0833H56.2501ZM9.27136 9.27123C9.77359 8.76905 10.4418 8.46737 11.1506 8.4228C11.8594 8.37823 12.5602 8.59383 13.1214 9.02915L13.3955 9.27123L15.4372 11.3129C15.9603 11.8378 16.264 12.5421 16.2866 13.2828C16.3092 14.0235 16.0491 14.745 15.559 15.3008C15.0689 15.8566 14.3856 16.205 13.6479 16.2753C12.9102 16.3456 12.1734 16.1324 11.5872 15.6791L11.313 15.4371L9.27136 13.3954C8.72457 12.8484 8.41739 12.1067 8.41739 11.3333C8.41739 10.5599 8.72457 9.81819 9.27136 9.27123ZM46.6047 9.27123C47.1296 8.74813 47.8339 8.44443 48.5746 8.42181C49.3152 8.3992 50.0368 8.65936 50.5926 9.14946C51.1484 9.63955 51.4968 10.3228 51.5671 11.0605C51.6374 11.7982 51.4242 12.535 50.9709 13.1212L50.7289 13.3954L48.6872 15.4371C48.1623 15.9602 47.458 16.2639 46.7173 16.2865C45.9766 16.3091 45.2551 16.0489 44.6993 15.5588C44.1435 15.0687 43.795 14.3855 43.7248 13.6478C43.6545 12.9101 43.8677 12.1733 44.3209 11.5871L44.563 11.3129L46.6047 9.27123ZM35.8334 47.5C36.607 47.5 37.3489 47.8073 37.8958 48.3543C38.4428 48.9012 38.7501 49.6431 38.7501 50.4166C38.7501 52.7373 37.8282 54.9629 36.1873 56.6038C34.5463 58.2448 32.3207 59.1666 30.0001 59.1666C27.6795 59.1666 25.4539 58.2448 23.8129 56.6038C22.172 54.9629 21.2501 52.7373 21.2501 50.4166C21.2502 49.7023 21.5125 49.0127 21.9872 48.4789C22.4619 47.945 23.116 47.604 23.8255 47.5204L24.1668 47.5H35.8334ZM30.0001 12.5C33.673 12.5 37.2529 13.6556 40.2325 15.8032C43.2122 17.9508 45.4406 20.9815 46.6021 24.466C47.7636 27.9505 47.7992 31.712 46.7041 35.2179C45.6089 38.7238 43.4385 41.7962 40.5001 44C40.0981 44.3019 39.6249 44.4948 39.1264 44.56L38.7501 44.5833H21.2501C20.619 44.5833 20.005 44.3786 19.5001 44C16.5618 41.7962 14.3913 38.7238 13.2961 35.2179C12.201 31.712 12.2367 27.9505 13.3981 24.466C14.5596 20.9815 16.788 17.9508 19.7677 15.8032C22.7473 13.6556 26.3272 12.5 30.0001 12.5Z" fill="#C7AB7C"/>
</svg>
