<svg width="66" height="46" viewBox="0 0 66 46" fill="none" xmlns="http://www.w3.org/2000/svg">
<path d="M0 22.1114H11.7857V45.9236H0V22.1114ZM49.5 45.9236H16.5V20.7456L23.6704 12.9845L25.6622 2.9204C25.8275 2.11098 26.3896 1.37116 27.2464 0.835302C28.1032 0.29944 29.1979 0.00306584 30.3317 0H30.6429C32.5177 0.00135086 34.3153 0.539381 35.641 1.49602C36.9668 2.45265 37.7124 3.74974 37.7143 5.10262V15.3079H56.5714C59.0711 15.3101 61.4675 16.0276 63.235 17.3031C65.0025 18.5785 65.9969 20.3077 66 22.1114V34.0175C65.9938 37.1738 64.2534 40.1996 61.1604 42.4314C58.0674 44.6633 53.8742 45.9191 49.5 45.9236Z" fill="#C7AB7C"/>
</svg>
