<svg width="73" height="73" viewBox="0 0 73 73" fill="none" xmlns="http://www.w3.org/2000/svg">
<path d="M61.5938 22.8125H47.9062C46.0917 22.8143 44.352 23.5359 43.069 24.819C41.7859 26.1021 41.0643 27.8417 41.0625 29.6563V43.3438C41.0625 44.5538 41.5432 45.7143 42.3988 46.5699C43.2545 47.4256 44.4149 47.9063 45.625 47.9063V63.875C45.625 65.0851 46.1057 66.2455 46.9613 67.1012C47.817 67.9568 48.9774 68.4375 50.1875 68.4375H59.3125C60.5226 68.4375 61.683 67.9568 62.5387 67.1012C63.3943 66.2455 63.875 65.0851 63.875 63.875V47.9063C65.0851 47.9063 66.2455 47.4256 67.1012 46.5699C67.9568 45.7143 68.4375 44.5538 68.4375 43.3438V29.6563C68.4357 27.8417 67.7141 26.1021 66.431 24.819C65.148 23.5359 63.4083 22.8143 61.5938 22.8125ZM63.875 43.3438H59.3125V63.875H50.1875V43.3438H45.625V29.6563C45.625 29.0512 45.8653 28.471 46.2932 28.0432C46.721 27.6153 47.3012 27.375 47.9062 27.375H61.5938C62.1988 27.375 62.779 27.6153 63.2068 28.0432C63.6347 28.471 63.875 29.0512 63.875 29.6563V43.3438ZM45.625 11.4063C45.625 9.6015 46.1602 7.83727 47.1628 6.33668C48.1655 4.83608 49.5906 3.6665 51.258 2.97585C52.9254 2.2852 54.7601 2.1045 56.5302 2.45659C58.3003 2.80868 59.9262 3.67775 61.2023 4.9539C62.4785 6.23006 63.3476 7.85598 63.6997 9.62606C64.0518 11.3961 63.8711 13.2309 63.1804 14.8982C62.4898 16.5656 61.3202 17.9907 59.8196 18.9934C58.319 19.9961 56.5548 20.5313 54.75 20.5313C52.3306 20.5288 50.0111 19.5667 48.3003 17.8559C46.5896 16.1452 45.6274 13.8256 45.625 11.4063ZM50.1875 11.4063C50.1875 12.3086 50.4551 13.1907 50.9564 13.941C51.4578 14.6913 52.1703 15.2761 53.004 15.6215C53.8377 15.9668 54.7551 16.0571 55.6401 15.8811C56.5251 15.705 57.3381 15.2705 57.9762 14.6324C58.6143 13.9944 59.0488 13.1814 59.2248 12.2964C59.4009 11.4113 59.3105 10.4939 58.9652 9.66026C58.6199 8.82657 58.0351 8.11401 57.2848 7.61267C56.5345 7.11134 55.6524 6.84375 54.75 6.84375C53.5399 6.84375 52.3795 7.32444 51.5238 8.18008C50.6682 9.03571 50.1875 10.1962 50.1875 11.4063ZM31.9375 36.5V29.6563C31.9357 27.8417 31.2141 26.1021 29.931 24.819C28.648 23.5359 26.9083 22.8143 25.0938 22.8125H11.4062C9.59173 22.8143 7.85205 23.5359 6.56899 24.819C5.28593 26.1021 4.56431 27.8417 4.5625 29.6563V36.5H0V41.0625H36.5V36.5H31.9375ZM9.125 29.6563C9.125 29.0512 9.36535 28.471 9.79316 28.0432C10.221 27.6153 10.8012 27.375 11.4062 27.375H25.0938C25.6988 27.375 26.279 27.6153 26.7068 28.0432C27.1347 28.471 27.375 29.0512 27.375 29.6563V36.5H9.125V29.6563ZM9.125 11.4063C9.125 9.6015 9.66017 7.83727 10.6628 6.33668C11.6655 4.83608 13.0906 3.6665 14.758 2.97585C16.4254 2.2852 18.2601 2.1045 20.0302 2.45659C21.8003 2.80868 23.4262 3.67775 24.7024 4.9539C25.9785 6.23006 26.8476 7.85598 27.1997 9.62606C27.5518 11.3961 27.3711 13.2309 26.6804 14.8982C25.9898 16.5656 24.8202 17.9907 23.3196 18.9934C21.819 19.9961 20.0548 20.5313 18.25 20.5313C15.8306 20.5288 13.5111 19.5667 11.8003 17.8559C10.0896 16.1452 9.12742 13.8256 9.125 11.4063ZM13.6875 11.4063C13.6875 12.3086 13.9551 13.1907 14.4564 13.941C14.9578 14.6913 15.6703 15.2761 16.504 15.6215C17.3377 15.9668 18.2551 16.0571 19.1401 15.8811C20.0251 15.705 20.8381 15.2705 21.4762 14.6324C22.1143 13.9944 22.5488 13.1814 22.7248 12.2964C22.9009 11.4113 22.8105 10.4939 22.4652 9.66026C22.1199 8.82657 21.5351 8.11401 20.7848 7.61267C20.0345 7.11134 19.1524 6.84375 18.25 6.84375C17.0399 6.84375 15.8795 7.32444 15.0238 8.18008C14.1682 9.03571 13.6875 10.1962 13.6875 11.4063Z" fill="#C7AB7C"/>
</svg>
