<svg width="69" height="69" viewBox="0 0 69 69" fill="none" xmlns="http://www.w3.org/2000/svg">
<path d="M7.50004 31.125C8.36026 31.126 9.18765 31.4553 9.81316 32.0459C10.4387 32.6364 10.8151 33.4435 10.8655 34.3022C10.9159 35.1609 10.6365 36.0065 10.0844 36.6662C9.53228 37.3258 8.74912 37.7498 7.89492 37.8514L7.50004 37.875H4.12504C3.26483 37.874 2.43744 37.5447 1.81193 36.9541C1.18642 36.3636 0.810002 35.5565 0.759589 34.6978C0.709177 33.8391 0.988572 32.9935 1.54069 32.3338C2.09281 31.6742 2.87597 31.2502 3.73017 31.1486L4.12504 31.125H7.50004ZM34.5 0.75C35.3267 0.750109 36.1246 1.0536 36.7423 1.60291C37.36 2.15223 37.7547 2.90915 37.8514 3.73012L37.875 4.125V7.5C37.8741 8.36022 37.5447 9.18761 36.9542 9.81312C36.3637 10.4386 35.5566 10.815 34.6978 10.8655C33.8391 10.9159 32.9935 10.6365 32.3339 10.0844C31.6742 9.53224 31.2503 8.74907 31.1487 7.89488L31.125 7.5V4.125C31.125 3.22989 31.4806 2.37145 32.1136 1.73851C32.7465 1.10558 33.6049 0.75 34.5 0.75ZM64.875 31.125C65.7353 31.126 66.5626 31.4553 67.1882 32.0459C67.8137 32.6364 68.1901 33.4435 68.2405 34.3022C68.2909 35.1609 68.0115 36.0065 67.4594 36.6662C66.9073 37.3258 66.1241 37.7498 65.2699 37.8514L64.875 37.875H61.5C60.6398 37.874 59.8124 37.5447 59.1869 36.9541C58.5614 36.3636 58.185 35.5565 58.1346 34.6978C58.0842 33.8391 58.3636 32.9935 58.9157 32.3338C59.4678 31.6742 60.251 31.2502 61.1052 31.1486L61.5 31.125H64.875ZM10.5139 10.5139C11.0951 9.93278 11.8683 9.5837 12.6885 9.53212C13.5087 9.48055 14.3196 9.73003 14.9689 10.2337L15.2862 10.5139L17.6487 12.8764C18.254 13.4837 18.6054 14.2987 18.6316 15.1558C18.6577 16.0129 18.3567 16.8478 17.7896 17.4909C17.2225 18.1341 16.4318 18.5373 15.5782 18.6186C14.7246 18.6999 13.872 18.4533 13.1937 17.9288L12.8764 17.6486L10.5139 15.2861C9.8812 14.6532 9.52577 13.7949 9.52577 12.9C9.52577 12.0051 9.8812 11.1468 10.5139 10.5139ZM53.7139 10.5139C54.3213 9.90858 55.1363 9.55715 55.9933 9.53098C56.8504 9.50481 57.6853 9.80585 58.3285 10.373C58.9716 10.9401 59.3748 11.7307 59.4561 12.5844C59.5375 13.438 59.2908 14.2905 58.7663 14.9689L58.4862 15.2861L56.1237 17.6486C55.5163 18.2539 54.7013 18.6053 53.8442 18.6315C52.9872 18.6577 52.1523 18.3566 51.5091 17.7895C50.8659 17.2224 50.4628 16.4318 50.3814 15.5781C50.3001 14.7245 50.5468 13.872 51.0713 13.1936L51.3514 12.8764L53.7139 10.5139ZM41.25 54.75C42.1451 54.75 43.0036 55.1056 43.6365 55.7385C44.2695 56.3714 44.625 57.2299 44.625 58.125C44.625 60.8103 43.5583 63.3857 41.6595 65.2845C39.7607 67.1833 37.1854 68.25 34.5 68.25C31.8147 68.25 29.2394 67.1833 27.3406 65.2845C25.4418 63.3857 24.375 60.8103 24.375 58.125C24.3752 57.2984 24.6786 56.5005 25.228 55.8827C25.7773 55.265 26.5342 54.8703 27.3552 54.7736L27.75 54.75H41.25ZM34.5 14.25C38.7502 14.25 42.8925 15.5873 46.3404 18.0723C49.7883 20.5574 52.3669 24.0644 53.7109 28.0964C55.0549 32.1284 55.0962 36.4811 53.8289 40.5379C52.5617 44.5947 50.0501 48.1499 46.65 50.7C46.1849 51.0494 45.6373 51.2726 45.0604 51.348L44.625 51.375H24.375C23.6448 51.375 22.9342 51.1381 22.35 50.7C18.9499 48.1499 16.4384 44.5947 15.1711 40.5379C13.9039 36.4811 13.9452 32.1284 15.2892 28.0964C16.6332 24.0644 19.2118 20.5574 22.6597 18.0723C26.1075 15.5873 30.2499 14.25 34.5 14.25Z" fill="#F8F8F8"/>
</svg>
