<svg width="21" height="23" viewBox="0 0 21 23" fill="none" xmlns="http://www.w3.org/2000/svg">
<path d="M10.5 18.8125C8.80575 16.6019 7.125 14.3125 7.125 12.625C7.125 10.375 8.25 9.25 10.5 9.25C12.75 9.25 13.875 10.375 13.875 12.625C13.875 14.3125 12.1943 16.6019 10.5 18.8125ZM10.5 18.8125C11.625 19.9375 12.1875 20.5 13.3125 21.0625C14.4375 21.625 16.125 22.1875 18.375 20.5C20.625 18.8125 20.0625 16.5625 18.9375 13.75C17.8125 10.9375 16.3129 7.5625 13.3125 3.0625C12.3743 1.9375 11.625 1.375 10.4966 1.375C9.37162 1.375 8.67075 1.88125 7.6875 3.0625C4.68712 7.5625 3.1875 10.9375 2.0625 13.75C0.9375 16.5625 0.375 18.8125 2.625 20.5C4.875 22.1875 6.5625 21.625 7.6875 21.0625C8.8125 20.5 9.375 19.9375 10.5 18.8125Z" stroke="white" stroke-width="2" stroke-linecap="round" stroke-linejoin="round"/>
</svg>
